<svg xmlns="http://www.w3.org/2000/svg" width="256" height="256" viewBox="0 0 256 256"><path d="M32 0 L140 0 L256 116 L256 224 Q256 256 224 256 L32 256 Q0 256 0 224 L0 32 Q0 0 32 0 Z" fill="#d4c98a"/><path d="M140 0 L256 0 L256 116 Z" fill="#f59e0b"/><g fill="#4a3e1a"><rect x="52" y="76" width="44" height="28" rx="4"/><rect x="52" y="114" width="44" height="28" rx="4"/><rect x="52" y="152" width="44" height="28" rx="4"/><rect x="160" y="76" width="44" height="28" rx="4"/><rect x="160" y="114" width="44" height="28" rx="4"/><rect x="160" y="152" width="44" height="28" rx="4"/></g></svg>
