<?xml version="1.0" encoding="UTF-8" standalone="no"?>
<svg
   viewBox="0 0 1600 520"
   role="img"
   aria-label="Signex"
   version="1.1"
   id="svg11"
   sodipodi:docname="signex-logo-black.svg"
   inkscape:version="1.4 (86a8ad7, 2024-10-11)"
   xmlns:inkscape="http://www.inkscape.org/namespaces/inkscape"
   xmlns:sodipodi="http://sodipodi.sourceforge.net/DTD/sodipodi-0.dtd"
   xmlns="http://www.w3.org/2000/svg"
   xmlns:svg="http://www.w3.org/2000/svg">
  <sodipodi:namedview
     id="namedview1"
     pagecolor="#ffffff"
     bordercolor="#000000"
     borderopacity="0.25"
     inkscape:showpageshadow="2"
     inkscape:pageopacity="0.0"
     inkscape:pagecheckerboard="0"
     inkscape:deskcolor="#d1d1d1"
     inkscape:zoom="0.72831999"
     inkscape:cx="928.84997"
     inkscape:cy="293.14038"
     inkscape:window-width="3440"
     inkscape:window-height="1369"
     inkscape:window-x="-8"
     inkscape:window-y="-8"
     inkscape:window-maximized="1"
     inkscape:current-layer="svg11" />
  <defs
     id="defs8">
    <linearGradient
       id="sxg1"
       gradientUnits="userSpaceOnUse"
       x1="1507.6936"
       y1="2706.8792"
       x2="1507.6936"
       y2="1622.4879"
       gradientTransform="matrix(1 -0.0099 0.0099 1 -17.0079 15.8203)">
      <stop
         offset="0"
         style="stop-color:#3DD8FF"
         id="stop1" />
      <stop
         offset="1"
         style="stop-color:#0F7A9D"
         id="stop2" />
    </linearGradient>
    <linearGradient
       id="sxg2"
       gradientUnits="userSpaceOnUse"
       x1="3008.5166"
       y1="2398.7129"
       x2="954.4917"
       y2="2398.7129"
       gradientTransform="matrix(0.9999 -0.0115 0.0115 0.9999 -21.5832 15.9509)">
      <stop
         offset="0"
         style="stop-color:#3DD8FF"
         id="stop3" />
      <stop
         offset="1"
         style="stop-color:#0F7A9D"
         id="stop4" />
    </linearGradient>
    <linearGradient
       id="sxg3"
       gradientUnits="userSpaceOnUse"
       x1="2488.2627"
       y1="1306.6985"
       x2="2488.2627"
       y2="2447.3899"
       gradientTransform="matrix(0.9999 -0.0115 0.0115 0.9999 -21.5832 15.9509)">
      <stop
         offset="0"
         style="stop-color:#3DD8FF"
         id="stop5" />
      <stop
         offset="1"
         style="stop-color:#0F7A9D"
         id="stop6" />
    </linearGradient>
    <linearGradient
       id="sxg4"
       gradientUnits="userSpaceOnUse"
       x1="826.5574"
       y1="1606.2859"
       x2="3408.311"
       y2="1606.2859"
       gradientTransform="matrix(1 -0.0099 0.0099 1 -17.0079 15.8203)">
      <stop
         offset="0"
         style="stop-color:#3DD8FF"
         id="stop7" />
      <stop
         offset="1"
         style="stop-color:#0F7A9D"
         id="stop8" />
    </linearGradient>
  </defs>
  <g
     transform="translate(40 50) scale(0.1615) translate(-800 -700)"
     id="g11">
    <path
       fill="url(#sxg1)"
       d="M1781.242,2676.171l-470.267-298.328c-17.657-11.193-32.143-26.121-42.596-43.469c-10.462-17.347-17.036-37.104-18.734-57.898c-0.019-0.271-0.045-0.542-0.064-0.806c-1.12-13.951-0.611-27.886,1.465-41.558c3.813-25.32,12.951-49.718,26.88-71.562c6.124-9.6,12.515-19.626,17.648-27.7c4.284-6.772,8.799-13.482,13.388-20.13c3.666-5.465,7.411-10.938,11.327-16.206c2.214-2.983,4.364-5.895,6.516-8.726c3.513-4.793,7.115-9.443,10.655-13.948c5.045-6.468,10.179-12.802,15.323-18.983l0.188-0.313c5.081-6.11,10.314-12.085,15.62-18.06c4.695-5.491,9.615-10.92,14.615-16.286c1.532-1.684,2.93-3.198,4.399-4.801c3.594-3.844,7.205-7.623,10.959-11.404c1.398-1.523,2.876-2.982,4.346-4.505c5.215-5.384,10.654-10.795,16.103-15.982c5.627-5.724,11.559-11.323,17.652-16.787c5.852-5.59,11.801-11.046,17.904-16.295c6.022-5.392,12.123-10.785,18.387-15.9c6.093-5.393,12.222-10.499,18.486-15.614c13.136-10.883,26.532-21.338,39.811-31.424c4.516-3.422,9.185-6.781,13.718-10.123c7.473-5.526,14.883-10.964,22.312-16.195c0.484-0.332,0.824-0.583,1.308-0.923c44.552-31.567,90.912-60.221,138.679-86.368c13.386-7.389,26.79-14.555,40.428-21.523c5.448-2.84,10.905-5.616,16.37-8.313L1781.242,2676.171z"
       id="path8" />
    <path
       fill="url(#sxg2)"
       d="M1267.725,2706.68c0,0,948.243-426.13,967.706-435.904c5.464-2.699,10.922-5.472,16.373-8.318c13.641-6.967,27.044-14.134,40.427-21.517c47.765-26.148,94.127-54.804,138.683-86.369c0.482-0.338,0.825-0.588,1.306-0.926c7.43-5.224,14.839-10.666,22.314-16.189c4.526-3.345,9.198-6.705,13.717-10.124c13.281-10.084,26.674-20.545,39.809-31.422c6.267-5.117,12.389-10.222,18.485-15.616c6.268-5.118,12.363-10.513,18.386-15.9c6.109-5.25,12.052-10.704,17.91-16.296c6.088-5.468,12.019-11.068,17.645-16.785c5.455-5.19,10.89-10.597,16.107-15.984c1.471-1.526,2.948-2.981,4.346-4.502c3.753-3.787,7.361-7.562,10.962-11.408c1.464-1.6,2.862-3.12,4.392-4.799c4.999-5.367,9.919-10.8,14.615-16.286c5.309-5.982,10.545-11.957,15.623-18.064l0.191-0.311c5.144-6.186,10.274-12.517,15.318-18.988c3.541-4.5,7.141-9.153,10.656-13.944c2.156-2.834,4.306-5.743,6.521-8.729c3.91-5.267,7.654-10.739,11.326-16.204c4.589-6.648,9.098-13.361,13.382-20.128c14.587-22.948,33.599-105.089,45.115-129.586l1.341,625.7c1.636,125.239-71.176,239.752-185.446,291.354l-795.981,355.211L1267.725,2706.68z"
       id="path9" />
    <path
       fill="url(#sxg3)"
       d="M2235.43,2270.776l-17.178-930.128l470.271,298.328c17.656,11.193,32.139,26.119,42.598,43.468c10.459,17.348,17.038,37.104,18.731,57.895c0.023,0.27,0.045,0.539,0.066,0.809c3.202,39.769-6.892,79.475-28.347,113.113c-6.124,9.602-12.513,19.628-17.647,27.705c-4.284,6.767-8.794,13.481-13.382,20.128c-3.672,5.464-7.416,10.937-11.326,16.204c-2.215,2.986-4.365,5.895-6.521,8.729c-3.514,4.792-7.114,9.444-10.656,13.944c-5.044,6.47-10.174,12.802-15.318,18.988l-0.191,0.311c-5.078,6.107-10.314,12.082-15.623,18.064c-4.696,5.485-9.615,10.919-14.615,16.286c-1.53,1.679-2.928,3.199-4.392,4.799c-3.601,3.847-7.209,7.621-10.962,11.408c-1.398,1.521-2.875,2.975-4.346,4.502c-5.217,5.387-10.652,10.794-16.107,15.984c-5.626,5.718-11.556,11.317-17.645,16.785c-5.858,5.592-11.801,11.046-17.91,16.296c-6.023,5.388-12.118,10.783-18.386,15.9c-6.095,5.394-12.217,10.499-18.485,15.616c-13.135,10.877-26.528,21.338-39.809,31.422c-4.519,3.419-9.19,6.779-13.717,10.124c-7.475,5.523-14.884,10.965-22.314,16.189c-0.482,0.338-0.824,0.588-1.306,0.926c-44.556,31.566-90.918,60.222-138.683,86.369c-13.383,7.384-26.786,14.55-40.427,21.517C2246.353,2265.303,2240.895,2268.076,2235.43,2270.776z"
       id="path10" />
    <path
       fill="url(#sxg4)"
       d="M2751,1293.319c0,0-967.473,442.95-986.935,452.722c-5.466,2.696-10.922,5.473-16.37,8.313c-13.638,6.968-27.042,14.134-40.428,21.523c-47.766,26.146-94.127,54.801-138.679,86.368c-0.483,0.34-0.824,0.591-1.308,0.923c-7.428,5.231-14.839,10.668-22.312,16.195c-4.533,3.342-9.202,6.701-13.718,10.123c-13.28,10.086-26.675,20.541-39.811,31.424c-6.264,5.115-12.392,10.221-18.486,15.614c-6.264,5.115-12.365,10.508-18.387,15.9c-6.103,5.249-12.052,10.705-17.904,16.295c-6.093,5.465-12.025,11.064-17.652,16.787c-5.449,5.187-10.888,10.597-16.103,15.982c-1.47,1.523-2.948,2.983-4.346,4.505c-3.755,3.781-7.365,7.561-10.959,11.404c-1.469,1.603-2.867,3.118-4.399,4.801c-5,5.366-9.92,10.795-14.615,16.286c-5.305,5.976-10.539,11.951-15.62,18.06l-0.188,0.313c-5.144,6.182-10.278,12.515-15.323,18.983c-3.54,4.505-7.142,9.155-10.655,13.948c-2.151,2.831-4.302,5.742-6.516,8.726c-3.915,5.268-7.661,10.741-11.327,16.206c-4.588,6.647-9.104,13.358-13.388,20.13c-5.133,8.074-11.524,18.1-17.648,27.7c-13.929,21.844-23.068,46.242-26.88,71.562c-0.008,0.024-0.024,0.04-0.031,0.064l-1.897-595.445c-1.631-125.236,71.181-239.746,185.449-291.354l815.206-372.023L2751,1293.319z"
       id="path11" />
  </g>
  <path
     d="m 447.35,298.2 q -0.9,-2.7 -0.9,-4.8 0,-5.1 6.9,-7.8 l 13.5,-4.2 q 2.7,-0.9 4.8,-0.9 2.4,0 4.2,1.5 1.8,1.5 3.3,5.1 3.6,8.7 11.85,12.6 8.25,3.9 22.05,3.9 32.1,0 32.1,-17.7 0,-9.9 -8.1,-13.5 -8.1,-3.6 -27.9,-5.7 -18.3,-1.8 -31.2,-5.85 -12.9,-4.05 -21.3,-14.1 -8.4,-10.05 -8.4,-28.35 0,-22.2 15.9,-35.25 15.9,-13.05 46.2,-13.05 48,0 64.2,32.1 1.8,3.6 1.8,5.7 0,2.7 -1.65,4.35 -1.65,1.65 -5.25,3.45 l -13.2,5.4 q -3.6,1.8 -6,1.8 -1.8,0 -3.3,-1.35 -1.5,-1.35 -3.6,-4.65 -4.2,-7.5 -11.55,-11.7 -7.35,-4.2 -20.85,-4.2 -28.2,0 -28.2,16.5 0,9.9 7.8,13.35 7.8,3.45 27.3,5.25 20.1,2.1 33.15,6.45 13.05,4.35 20.55,14.4 7.5,10.05 7.5,27.45 0,22.8 -16.95,36.45 -16.95,13.65 -48.15,13.65 -26.1,0 -42.75,-9.3 -16.65,-9.3 -23.85,-27 z m 155.3,22.5 V 183.6 q 0,-5.1 2.1,-7.05 2.1,-1.95 7.2,-1.95 h 16.2 q 5.1,0 7.2,1.95 2.1,1.95 2.1,7.05 v 137.1 q 0,5.1 -2.1,7.2 -2.1,2.1 -7.2,2.1 h -16.2 q -5.1,0 -7.2,-2.1 -2.1,-2.1 -2.1,-7.2 z m -1.5,-192.9 q 0,-10.2 3.6,-13.65 3.6,-3.45 14.1,-3.45 h 2.4 q 10.5,0 14.1,3.45 3.6,3.45 3.6,13.65 v 2.7 q 0,10.2 -3.6,13.8 -3.6,3.6 -14.1,3.6 h -2.4 q -10.5,0 -14.1,-3.6 -3.6,-3.6 -3.6,-13.8 z m 68.3,243.9 q -2.7,-3.9 -2.7,-6.9 0,-4.8 6.3,-8.1 l 11.4,-6.3 q 3.9,-2.1 6.9,-2.1 4.2,0 8.1,5.7 4.8,7.8 12.15,11.55 7.35,3.75 19.35,3.75 15.6,0 23.7,-8.25 8.1,-8.25 8.1,-24.15 v -15 q -20.1,5.4 -36,5.4 -31.2,0 -46.65,-15.6 -15.45,-15.6 -15.45,-44.7 v -33.9 q 0,-30.9 16.8,-46.95 16.8,-16.05 50.7,-16.05 17.1,0 31.35,2.7 14.25,2.7 22.95,6.6 7.2,3.3 9.15,6.3 1.95,3 1.95,10.2 v 139.2 q 0,30.9 -16.05,48.15 -16.05,17.25 -49.95,17.25 -45,0 -62.1,-28.8 z m 62.4,-76.2 q 13.5,0 30.9,-4.2 v -82.5 q 0,-1.5 -0.45,-2.25 -0.45,-0.75 -1.95,-1.35 -12.6,-3.3 -25.5,-3.3 -18.3,0 -26.85,7.8 -8.55,7.8 -8.55,24.6 v 31.8 q 0,14.4 8.25,21.9 8.25,7.5 24.15,7.5 z m 97.1,25.2 V 197.4 q 0,-7.2 2.25,-10.65 2.25,-3.45 9.15,-6.45 26.1,-10.2 59.1,-10.2 31.5,0 46.95,15.6 15.45,15.6 15.45,44.7 v 90.3 q 0,5.1 -2.1,7.2 -2.1,2.1 -7.2,2.1 h -16.2 q -5.1,0 -7.2,-2.1 -2.1,-2.1 -2.1,-7.2 v -89.4 q 0,-15 -8.1,-22.2 -8.1,-7.2 -24.6,-7.2 -14.4,0 -28.8,3.9 -1.8,0.9 -1.8,3 v 111.9 q 0,5.1 -2.1,7.2 -2.1,2.1 -7.2,2.1 h -16.5 q -5.1,0 -7.05,-2.1 -1.95,-2.1 -1.95,-7.2 z m 158.3,-50.4 v -35.4 q 0,-31.5 17.85,-48.15 17.85,-16.65 51.75,-16.65 34.2,0 51.9,17.4 17.7,17.4 17.7,44.7 v 18.3 q 0,12.9 -13.5,12.9 h -90.9 v 11.1 q 0,14.7 8.85,22.35 8.85,7.65 25.65,7.65 24.9,0 35.4,-15.9 4.2,-6 8.1,-6 2.7,0 6.9,2.4 l 10.5,5.7 q 6,3 6,7.8 0,3.6 -2.4,7.2 -17.7,28.8 -64.8,28.8 -35.1,0 -52.05,-17.4 -16.95,-17.4 -16.95,-46.8 z m 104.4,-33.6 v -6.6 q 0,-14.7 -8.85,-22.65 -8.85,-7.95 -25.95,-7.95 -16.8,0 -25.8,7.95 -9,7.95 -9,22.65 v 6.6 z m 46.1,89.1 q 0,-2.1 3,-6.6 l 48,-69 -45.9,-64.8 q -2.4,-3.9 -2.4,-6 0,-4.8 9.6,-4.8 h 13.8 q 7.5,0 10.65,1.35 3.15,1.35 6.45,6.45 l 29.4,42.3 29.1,-42.3 q 3.6,-5.1 6.3,-6.45 2.7,-1.35 9.9,-1.35 h 14.7 q 9,0 9,4.5 0,2.1 -2.7,6.3 l -45,64.5 48.3,69.3 q 2.7,3.9 2.7,6.3 0,4.5 -9.6,4.5 h -14.4 q -7.5,0 -10.5,-1.35 -3,-1.35 -6.3,-6.45 l -32.1,-47.1 -31.2,47.1 q -3.3,5.1 -6.3,6.45 -3,1.35 -10.5,1.35 h -14.1 q -9.9,0 -9.9,-4.2 z"
     id="text11"
     style="font-weight:700;font-size:300px;font-family:Panton;letter-spacing:-7;fill:#111214"
     aria-label="signex" />
</svg>
