<?xml version="1.0" encoding="UTF-8" standalone="no"?>
<!-- Generator: Adobe Illustrator 27.5.0, SVG Export Plug-In . SVG Version: 6.00 Build 0)  -->

<svg
   version="1.1"
   id="Layer_1"
   x="0px"
   y="0px"
   viewBox="0 0 1501.999 2049.292"
   xml:space="preserve"
   sodipodi:docname="signex.svg"
   inkscape:version="1.4 (86a8ad7, 2024-10-11)"
   width="1501.999"
   height="2049.292"
   xmlns:inkscape="http://www.inkscape.org/namespaces/inkscape"
   xmlns:sodipodi="http://sodipodi.sourceforge.net/DTD/sodipodi-0.dtd"
   xmlns="http://www.w3.org/2000/svg"
   xmlns:svg="http://www.w3.org/2000/svg"><defs
   id="defs9" /><sodipodi:namedview
   id="namedview9"
   pagecolor="#ffffff"
   bordercolor="#000000"
   borderopacity="0.25"
   inkscape:showpageshadow="2"
   inkscape:pageopacity="0.0"
   inkscape:pagecheckerboard="0"
   inkscape:deskcolor="#d1d1d1"
   inkscape:zoom="0.145875"
   inkscape:cx="-366.75236"
   inkscape:cy="1388.1748"
   inkscape:window-width="3440"
   inkscape:window-height="1369"
   inkscape:window-x="-8"
   inkscape:window-y="-8"
   inkscape:window-maximized="1"
   inkscape:current-layer="Layer_1" />

<g
   id="g9"
   transform="translate(-1249.0009,-975.354)">
	<g
   id="g8">
		
			<linearGradient
   id="SVGID_1_"
   gradientUnits="userSpaceOnUse"
   x1="1507.6936"
   y1="2706.8792"
   x2="1507.6936"
   y2="1622.4879"
   gradientTransform="matrix(1,-0.0099,0.0099,1,-17.0079,15.8203)">
			<stop
   offset="0"
   style="stop-color:#3DD8FF"
   id="stop1" />
			<stop
   offset="1"
   style="stop-color:#A472FF"
   id="stop2" />
		</linearGradient>
		<path
   style="fill:url(#SVGID_1_)"
   d="m 1781.242,2676.171 -470.267,-298.328 c -17.657,-11.193 -32.143,-26.121 -42.596,-43.469 -10.462,-17.347 -17.036,-37.104 -18.734,-57.898 -0.019,-0.271 -0.045,-0.542 -0.064,-0.806 -1.12,-13.951 -0.611,-27.886 1.465,-41.558 3.813,-25.32 12.951,-49.718 26.88,-71.562 6.124,-9.6 12.515,-19.626 17.648,-27.7 4.284,-6.772 8.799,-13.482 13.388,-20.13 3.666,-5.465 7.411,-10.938 11.327,-16.206 2.214,-2.983 4.364,-5.895 6.516,-8.726 3.513,-4.793 7.115,-9.443 10.655,-13.948 5.045,-6.468 10.179,-12.802 15.323,-18.983 l 0.188,-0.313 c 5.081,-6.11 10.314,-12.085 15.62,-18.06 4.695,-5.491 9.615,-10.92 14.615,-16.286 1.532,-1.684 2.93,-3.198 4.399,-4.801 3.594,-3.844 7.205,-7.623 10.959,-11.404 1.398,-1.523 2.876,-2.982 4.346,-4.505 5.215,-5.384 10.654,-10.795 16.103,-15.982 5.627,-5.724 11.559,-11.323 17.652,-16.787 5.852,-5.59 11.801,-11.046 17.904,-16.295 6.022,-5.392 12.123,-10.785 18.387,-15.9 6.093,-5.393 12.222,-10.499 18.486,-15.614 13.136,-10.883 26.532,-21.338 39.811,-31.424 4.516,-3.422 9.185,-6.781 13.718,-10.123 7.473,-5.526 14.883,-10.964 22.312,-16.195 0.484,-0.332 0.824,-0.583 1.308,-0.923 44.552,-31.567 90.912,-60.221 138.679,-86.368 13.386,-7.389 26.79,-14.555 40.428,-21.523 5.448,-2.84 10.905,-5.616 16.37,-8.313 z"
   id="path2" />
		<g
   id="g6">
			
				<linearGradient
   id="SVGID_00000147189362881696355420000007132864264617923721_"
   gradientUnits="userSpaceOnUse"
   x1="3008.5166"
   y1="2398.7129"
   x2="954.4917"
   y2="2398.7129"
   gradientTransform="matrix(0.9999,-0.0115,0.0115,0.9999,-21.5832,15.9509)">
				<stop
   offset="0"
   style="stop-color:#3DD8FF"
   id="stop3" />
				<stop
   offset="1"
   style="stop-color:#A472FF"
   id="stop4" />
			</linearGradient>
			<path
   style="fill:url(#SVGID_00000147189362881696355420000007132864264617923721_)"
   d="m 1267.725,2706.68 c 0,0 948.243,-426.13 967.706,-435.904 5.464,-2.699 10.922,-5.472 16.373,-8.318 13.641,-6.967 27.044,-14.134 40.427,-21.517 47.765,-26.148 94.127,-54.804 138.683,-86.369 0.482,-0.338 0.825,-0.588 1.306,-0.926 7.43,-5.224 14.839,-10.666 22.314,-16.189 4.526,-3.345 9.198,-6.705 13.717,-10.124 13.281,-10.084 26.674,-20.545 39.809,-31.422 6.267,-5.117 12.389,-10.222 18.485,-15.616 6.268,-5.118 12.363,-10.513 18.386,-15.9 6.109,-5.25 12.052,-10.704 17.91,-16.296 6.088,-5.468 12.019,-11.068 17.645,-16.785 5.455,-5.19 10.89,-10.597 16.107,-15.984 1.471,-1.526 2.948,-2.981 4.346,-4.502 3.753,-3.787 7.361,-7.562 10.962,-11.408 1.464,-1.6 2.862,-3.12 4.392,-4.799 4.999,-5.367 9.919,-10.8 14.615,-16.286 5.309,-5.982 10.545,-11.957 15.623,-18.064 l 0.191,-0.311 c 5.144,-6.186 10.274,-12.517 15.318,-18.988 3.541,-4.5 7.141,-9.153 10.656,-13.944 2.156,-2.834 4.306,-5.743 6.521,-8.729 3.91,-5.267 7.654,-10.739 11.326,-16.204 4.589,-6.648 9.098,-13.361 13.382,-20.128 14.587,-22.948 33.599,-105.089 45.115,-129.586 l 1.341,625.7 c 1.636,125.239 -71.176,239.752 -185.446,291.354 l -795.981,355.211 z"
   id="path4" />
			
				<linearGradient
   id="SVGID_00000006710095489987762990000011497004472874705319_"
   gradientUnits="userSpaceOnUse"
   x1="2488.2627"
   y1="1306.6985"
   x2="2488.2627"
   y2="2447.3899"
   gradientTransform="matrix(0.9999,-0.0115,0.0115,0.9999,-21.5832,15.9509)">
				<stop
   offset="0"
   style="stop-color:#3DD8FF"
   id="stop5" />
				<stop
   offset="1"
   style="stop-color:#A472FF"
   id="stop6" />
			</linearGradient>
			<path
   style="fill:url(#SVGID_00000006710095489987762990000011497004472874705319_)"
   d="m 2235.43,2270.776 -17.178,-930.128 470.271,298.328 c 17.656,11.193 32.139,26.119 42.598,43.468 10.459,17.348 17.038,37.104 18.731,57.895 0.023,0.27 0.045,0.539 0.066,0.809 3.202,39.769 -6.892,79.475 -28.347,113.113 -6.124,9.602 -12.513,19.628 -17.647,27.705 -4.284,6.767 -8.794,13.481 -13.382,20.128 -3.672,5.464 -7.416,10.937 -11.326,16.204 -2.215,2.986 -4.365,5.895 -6.521,8.729 -3.514,4.792 -7.114,9.444 -10.656,13.944 -5.044,6.47 -10.174,12.802 -15.318,18.988 l -0.191,0.311 c -5.078,6.107 -10.314,12.082 -15.623,18.064 -4.696,5.485 -9.615,10.919 -14.615,16.286 -1.53,1.679 -2.928,3.199 -4.392,4.799 -3.601,3.847 -7.209,7.621 -10.962,11.408 -1.398,1.521 -2.875,2.975 -4.346,4.502 -5.217,5.387 -10.652,10.794 -16.107,15.984 -5.626,5.718 -11.556,11.317 -17.645,16.785 -5.858,5.592 -11.801,11.046 -17.91,16.296 -6.023,5.388 -12.118,10.783 -18.386,15.9 -6.095,5.394 -12.217,10.499 -18.485,15.616 -13.135,10.877 -26.528,21.338 -39.809,31.422 -4.519,3.419 -9.19,6.779 -13.717,10.124 -7.475,5.523 -14.884,10.965 -22.314,16.189 -0.482,0.338 -0.824,0.588 -1.306,0.926 -44.556,31.566 -90.918,60.222 -138.683,86.369 -13.383,7.384 -26.786,14.55 -40.427,21.517 -5.45,2.846 -10.908,5.619 -16.373,8.319 z"
   id="path6" />
		</g>
		
			<linearGradient
   id="SVGID_00000012465778862567821420000014087708567155805861_"
   gradientUnits="userSpaceOnUse"
   x1="826.55737"
   y1="1606.2859"
   x2="3408.311"
   y2="1606.2859"
   gradientTransform="matrix(1,-0.0099,0.0099,1,-17.0079,15.8203)">
			<stop
   offset="0"
   style="stop-color:#3DD8FF"
   id="stop7" />
			<stop
   offset="1"
   style="stop-color:#A472FF"
   id="stop8" />
		</linearGradient>
		<path
   style="fill:url(#SVGID_00000012465778862567821420000014087708567155805861_)"
   d="m 2751,1293.319 c 0,0 -967.473,442.95 -986.935,452.722 -5.466,2.696 -10.922,5.473 -16.37,8.313 -13.638,6.968 -27.042,14.134 -40.428,21.523 -47.766,26.146 -94.127,54.801 -138.679,86.368 -0.483,0.34 -0.824,0.591 -1.308,0.923 -7.428,5.231 -14.839,10.668 -22.312,16.195 -4.533,3.342 -9.202,6.701 -13.718,10.123 -13.28,10.086 -26.675,20.541 -39.811,31.424 -6.264,5.115 -12.392,10.221 -18.486,15.614 -6.264,5.115 -12.365,10.508 -18.387,15.9 -6.103,5.249 -12.052,10.705 -17.904,16.295 -6.093,5.465 -12.025,11.064 -17.652,16.787 -5.449,5.187 -10.888,10.597 -16.103,15.982 -1.47,1.523 -2.948,2.983 -4.346,4.505 -3.755,3.781 -7.365,7.561 -10.959,11.404 -1.469,1.603 -2.867,3.118 -4.399,4.801 -5,5.366 -9.92,10.795 -14.615,16.286 -5.305,5.976 -10.539,11.951 -15.62,18.06 l -0.188,0.313 c -5.144,6.182 -10.278,12.515 -15.323,18.983 -3.54,4.505 -7.142,9.155 -10.655,13.948 -2.151,2.831 -4.302,5.742 -6.516,8.726 -3.915,5.268 -7.661,10.741 -11.327,16.206 -4.588,6.647 -9.104,13.358 -13.388,20.13 -5.133,8.074 -11.524,18.1 -17.648,27.7 -13.929,21.844 -23.068,46.242 -26.88,71.562 -0.01,0.024 -0.024,0.04 -0.031,0.064 l -1.897,-595.445 c -1.631,-125.236 71.181,-239.746 185.449,-291.354 L 2249.77,975.354 Z"
   id="path8" />
	</g>
</g>
</svg>
