<?xml version="1.0" encoding="UTF-8" standalone="no"?>
<svg
   viewBox="0 0 1600 520"
   role="img"
   aria-label="Signex"
   version="1.1"
   id="svg11"
   xmlns="http://www.w3.org/2000/svg"
   xmlns:svg="http://www.w3.org/2000/svg">
  <defs
     id="defs8">
    <linearGradient
       id="sxg1"
       gradientUnits="userSpaceOnUse"
       x1="1507.6936"
       y1="2706.8792"
       x2="1507.6936"
       y2="1622.4879"
       gradientTransform="matrix(1 -0.0099 0.0099 1 -17.0079 15.8203)">
      <stop
         offset="0"
         style="stop-color:#3DD8FF"
         id="stop1" />
      <stop
         offset="1"
         style="stop-color:#0F7A9D"
         id="stop2" />
    </linearGradient>
    <linearGradient
       id="sxg2"
       gradientUnits="userSpaceOnUse"
       x1="3008.5166"
       y1="2398.7129"
       x2="954.4917"
       y2="2398.7129"
       gradientTransform="matrix(0.9999 -0.0115 0.0115 0.9999 -21.5832 15.9509)">
      <stop
         offset="0"
         style="stop-color:#3DD8FF"
         id="stop3" />
      <stop
         offset="1"
         style="stop-color:#0F7A9D"
         id="stop4" />
    </linearGradient>
    <linearGradient
       id="sxg3"
       gradientUnits="userSpaceOnUse"
       x1="2488.2627"
       y1="1306.6985"
       x2="2488.2627"
       y2="2447.3899"
       gradientTransform="matrix(0.9999 -0.0115 0.0115 0.9999 -21.5832 15.9509)">
      <stop
         offset="0"
         style="stop-color:#3DD8FF"
         id="stop5" />
      <stop
         offset="1"
         style="stop-color:#0F7A9D"
         id="stop6" />
    </linearGradient>
    <linearGradient
       id="sxg4"
       gradientUnits="userSpaceOnUse"
       x1="826.5574"
       y1="1606.2859"
       x2="3408.311"
       y2="1606.2859"
       gradientTransform="matrix(1 -0.0099 0.0099 1 -17.0079 15.8203)">
      <stop
         offset="0"
         style="stop-color:#3DD8FF"
         id="stop7" />
      <stop
         offset="1"
         style="stop-color:#0F7A9D"
         id="stop8" />
    </linearGradient>
  </defs>
  <g
     transform="translate(40 50) scale(0.1615) translate(-800 -700)"
     id="g11">
    <path
       fill="url(#sxg1)"
       d="M1781.242,2676.171l-470.267-298.328c-17.657-11.193-32.143-26.121-42.596-43.469c-10.462-17.347-17.036-37.104-18.734-57.898c-0.019-0.271-0.045-0.542-0.064-0.806c-1.12-13.951-0.611-27.886,1.465-41.558c3.813-25.32,12.951-49.718,26.88-71.562c6.124-9.6,12.515-19.626,17.648-27.7c4.284-6.772,8.799-13.482,13.388-20.13c3.666-5.465,7.411-10.938,11.327-16.206c2.214-2.983,4.364-5.895,6.516-8.726c3.513-4.793,7.115-9.443,10.655-13.948c5.045-6.468,10.179-12.802,15.323-18.983l0.188-0.313c5.081-6.11,10.314-12.085,15.62-18.06c4.695-5.491,9.615-10.92,14.615-16.286c1.532-1.684,2.93-3.198,4.399-4.801c3.594-3.844,7.205-7.623,10.959-11.404c1.398-1.523,2.876-2.982,4.346-4.505c5.215-5.384,10.654-10.795,16.103-15.982c5.627-5.724,11.559-11.323,17.652-16.787c5.852-5.59,11.801-11.046,17.904-16.295c6.022-5.392,12.123-10.785,18.387-15.9c6.093-5.393,12.222-10.499,18.486-15.614c13.136-10.883,26.532-21.338,39.811-31.424c4.516-3.422,9.185-6.781,13.718-10.123c7.473-5.526,14.883-10.964,22.312-16.195c0.484-0.332,0.824-0.583,1.308-0.923c44.552-31.567,90.912-60.221,138.679-86.368c13.386-7.389,26.79-14.555,40.428-21.523c5.448-2.84,10.905-5.616,16.37-8.313L1781.242,2676.171z"
       id="path8" />
    <path
       fill="url(#sxg2)"
       d="M1267.725,2706.68c0,0,948.243-426.13,967.706-435.904c5.464-2.699,10.922-5.472,16.373-8.318c13.641-6.967,27.044-14.134,40.427-21.517c47.765-26.148,94.127-54.804,138.683-86.369c0.482-0.338,0.825-0.588,1.306-0.926c7.43-5.224,14.839-10.666,22.314-16.189c4.526-3.345,9.198-6.705,13.717-10.124c13.281-10.084,26.674-20.545,39.809-31.422c6.267-5.117,12.389-10.222,18.485-15.616c6.268-5.118,12.363-10.513,18.386-15.9c6.109-5.25,12.052-10.704,17.91-16.296c6.088-5.468,12.019-11.068,17.645-16.785c5.455-5.19,10.89-10.597,16.107-15.984c1.471-1.526,2.948-2.981,4.346-4.502c3.753-3.787,7.361-7.562,10.962-11.408c1.464-1.6,2.862-3.12,4.392-4.799c4.999-5.367,9.919-10.8,14.615-16.286c5.309-5.982,10.545-11.957,15.623-18.064l0.191-0.311c5.144-6.186,10.274-12.517,15.318-18.988c3.541-4.5,7.141-9.153,10.656-13.944c2.156-2.834,4.306-5.743,6.521-8.729c3.91-5.267,7.654-10.739,11.326-16.204c4.589-6.648,9.098-13.361,13.382-20.128c14.587-22.948,33.599-105.089,45.115-129.586l1.341,625.7c1.636,125.239-71.176,239.752-185.446,291.354l-795.981,355.211L1267.725,2706.68z"
       id="path9" />
    <path
       fill="url(#sxg3)"
       d="M2235.43,2270.776l-17.178-930.128l470.271,298.328c17.656,11.193,32.139,26.119,42.598,43.468c10.459,17.348,17.038,37.104,18.731,57.895c0.023,0.27,0.045,0.539,0.066,0.809c3.202,39.769-6.892,79.475-28.347,113.113c-6.124,9.602-12.513,19.628-17.647,27.705c-4.284,6.767-8.794,13.481-13.382,20.128c-3.672,5.464-7.416,10.937-11.326,16.204c-2.215,2.986-4.365,5.895-6.521,8.729c-3.514,4.792-7.114,9.444-10.656,13.944c-5.044,6.47-10.174,12.802-15.318,18.988l-0.191,0.311c-5.078,6.107-10.314,12.082-15.623,18.064c-4.696,5.485-9.615,10.919-14.615,16.286c-1.53,1.679-2.928,3.199-4.392,4.799c-3.601,3.847-7.209,7.621-10.962,11.408c-1.398,1.521-2.875,2.975-4.346,4.502c-5.217,5.387-10.652,10.794-16.107,15.984c-5.626,5.718-11.556,11.317-17.645,16.785c-5.858,5.592-11.801,11.046-17.91,16.296c-6.023,5.388-12.118,10.783-18.386,15.9c-6.095,5.394-12.217,10.499-18.485,15.616c-13.135,10.877-26.528,21.338-39.809,31.422c-4.519,3.419-9.19,6.779-13.717,10.124c-7.475,5.523-14.884,10.965-22.314,16.189c-0.482,0.338-0.824,0.588-1.306,0.926c-44.556,31.566-90.918,60.222-138.683,86.369c-13.383,7.384-26.786,14.55-40.427,21.517C2246.353,2265.303,2240.895,2268.076,2235.43,2270.776z"
       id="path10" />
    <path
       fill="url(#sxg4)"
       d="M2751,1293.319c0,0-967.473,442.95-986.935,452.722c-5.466,2.696-10.922,5.473-16.37,8.313c-13.638,6.968-27.042,14.134-40.428,21.523c-47.766,26.146-94.127,54.801-138.679,86.368c-0.483,0.34-0.824,0.591-1.308,0.923c-7.428,5.231-14.839,10.668-22.312,16.195c-4.533,3.342-9.202,6.701-13.718,10.123c-13.28,10.086-26.675,20.541-39.811,31.424c-6.264,5.115-12.392,10.221-18.486,15.614c-6.264,5.115-12.365,10.508-18.387,15.9c-6.103,5.249-12.052,10.705-17.904,16.295c-6.093,5.465-12.025,11.064-17.652,16.787c-5.449,5.187-10.888,10.597-16.103,15.982c-1.47,1.523-2.948,2.983-4.346,4.505c-3.755,3.781-7.365,7.561-10.959,11.404c-1.469,1.603-2.867,3.118-4.399,4.801c-5,5.366-9.92,10.795-14.615,16.286c-5.305,5.976-10.539,11.951-15.62,18.06l-0.188,0.313c-5.144,6.182-10.278,12.515-15.323,18.983c-3.54,4.505-7.142,9.155-10.655,13.948c-2.151,2.831-4.302,5.742-6.516,8.726c-3.915,5.268-7.661,10.741-11.327,16.206c-4.588,6.647-9.104,13.358-13.388,20.13c-5.133,8.074-11.524,18.1-17.648,27.7c-13.929,21.844-23.068,46.242-26.88,71.562c-0.008,0.024-0.024,0.04-0.031,0.064l-1.897-595.445c-1.631-125.236,71.181-239.746,185.449-291.354l815.206-372.023L2751,1293.319z"
       id="path11" />
  </g>
  <path
     d="M509.35 298.2Q508.45 295.5 508.45 293.4Q508.45 288.3 515.35 285.6L528.85 281.4Q531.55 280.5 533.65 280.5Q536.05 280.5 537.8499999999999 282.0Q539.65 283.5 541.15 287.1Q544.75 295.8 553.0 299.70000000000005Q561.25 303.6 575.05 303.6Q607.15 303.6 607.15 285.9Q607.15 276.0 599.05 272.4Q590.95 268.8 571.15 266.7Q552.85 264.9 539.95 260.85Q527.05 256.8 518.65 246.75Q510.25 236.7 510.25 218.4Q510.25 196.20000000000002 526.15 183.15Q542.05 170.1 572.35 170.1Q620.35 170.1 636.55 202.2Q638.35 205.8 638.35 207.9Q638.35 210.60000000000002 636.7 212.25Q635.05 213.9 631.45 215.7L618.25 221.10000000000002Q614.65 222.9 612.25 222.9Q610.45 222.9 608.95 221.55Q607.45 220.2 605.35 216.9Q601.15 209.4 593.8 205.2Q586.45 201.0 572.95 201.0Q544.75 201.0 544.75 217.5Q544.75 227.4 552.55 230.85000000000002Q560.35 234.3 579.85 236.10000000000002Q599.95 238.2 613.0 242.55Q626.05 246.9 633.55 256.95Q641.05 267.0 641.05 284.4Q641.05 307.2 624.0999999999999 320.85Q607.15 334.5 575.95 334.5Q549.85 334.5 533.2 325.2Q516.55 315.9 509.35 298.2ZM664.65 320.7V183.6Q664.65 178.5 666.75 176.55Q668.85 174.6 673.9499999999999 174.6H690.15Q695.25 174.6 697.3499999999999 176.55Q699.4499999999999 178.5 699.4499999999999 183.6V320.7Q699.4499999999999 325.8 697.3499999999999 327.9Q695.25 330.0 690.15 330.0H673.9499999999999Q668.85 330.0 666.75 327.9Q664.65 325.8 664.65 320.7ZM663.15 127.80000000000001Q663.15 117.6 666.75 114.15Q670.35 110.70000000000002 680.85 110.70000000000002H683.25Q693.75 110.70000000000002 697.3499999999999 114.15Q700.9499999999999 117.6 700.9499999999999 127.80000000000001V130.5Q700.9499999999999 140.70000000000002 697.3499999999999 144.3Q693.75 147.9 683.25 147.9H680.85Q670.35 147.9 666.75 144.3Q663.15 140.70000000000002 663.15 130.5ZM731.45 371.7Q728.75 367.8 728.75 364.8Q728.75 360.0 735.0500000000001 356.7L746.45 350.4Q750.35 348.3 753.35 348.3Q757.5500000000001 348.3 761.45 354.0Q766.25 361.8 773.6 365.55Q780.95 369.3 792.95 369.3Q808.5500000000001 369.3 816.6500000000001 361.05Q824.75 352.8 824.75 336.9V321.9Q804.6500000000001 327.3 788.75 327.3Q757.5500000000001 327.3 742.1000000000001 311.70000000000005Q726.6500000000001 296.1 726.6500000000001 267.0V233.10000000000002Q726.6500000000001 202.2 743.45 186.14999999999998Q760.25 170.1 794.1500000000001 170.1Q811.25 170.1 825.5 172.8Q839.75 175.5 848.45 179.4Q855.6500000000001 182.70000000000002 857.6000000000001 185.70000000000002Q859.5500000000001 188.70000000000002 859.5500000000001 195.9V335.1Q859.5500000000001 366.0 843.5 383.25Q827.45 400.5 793.5500000000001 400.5Q748.5500000000001 400.5 731.45 371.7ZM793.85 295.5Q807.35 295.5 824.75 291.3V208.8Q824.75 207.3 824.3 206.55Q823.85 205.8 822.35 205.2Q809.75 201.9 796.85 201.9Q778.5500000000001 201.9 770.0 209.7Q761.45 217.5 761.45 234.3V266.1Q761.45 280.5 769.7 288.0Q777.95 295.5 793.85 295.5ZM890.95 320.7V197.4Q890.95 190.20000000000002 893.2 186.75Q895.45 183.3 902.35 180.3Q928.45 170.1 961.45 170.1Q992.95 170.1 1008.4000000000001 185.7Q1023.85 201.3 1023.85 230.4V320.7Q1023.85 325.8 1021.75 327.9Q1019.65 330.0 1014.55 330.0H998.35Q993.25 330.0 991.15 327.9Q989.05 325.8 989.05 320.7V231.3Q989.05 216.3 980.95 209.10000000000002Q972.85 201.9 956.35 201.9Q941.95 201.9 927.55 205.8Q925.75 206.7 925.75 208.8V320.7Q925.75 325.8 923.65 327.9Q921.55 330.0 916.45 330.0H899.95Q894.85 330.0 892.9000000000001 327.9Q890.95 325.8 890.95 320.7ZM1049.25 270.3V234.9Q1049.25 203.4 1067.1 186.75Q1084.95 170.1 1118.8500000000001 170.1Q1153.0500000000002 170.1 1170.75 187.5Q1188.45 204.9 1188.45 232.2V250.5Q1188.45 263.4 1174.95 263.4H1084.0500000000002V274.5Q1084.0500000000002 289.2 1092.9 296.85Q1101.75 304.5 1118.5500000000002 304.5Q1143.45 304.5 1153.95 288.6Q1158.15 282.6 1162.0500000000002 282.6Q1164.75 282.6 1168.95 285.0L1179.45 290.7Q1185.45 293.7 1185.45 298.5Q1185.45 302.1 1183.0500000000002 305.7Q1165.3500000000001 334.5 1118.25 334.5Q1083.15 334.5 1066.2 317.1Q1049.25 299.7 1049.25 270.3ZM1153.65 236.7V230.10000000000002Q1153.65 215.4 1144.8000000000002 207.45Q1135.95 199.5 1118.8500000000001 199.5Q1102.0500000000002 199.5 1093.0500000000002 207.45Q1084.0500000000002 215.4 1084.0500000000002 230.10000000000002V236.7ZM1199.75 325.8Q1199.75 323.7 1202.75 319.2L1250.75 250.2L1204.85 185.4Q1202.45 181.5 1202.45 179.4Q1202.45 174.6 1212.05 174.6H1225.85Q1233.35 174.6 1236.5 175.95Q1239.65 177.3 1242.95 182.4L1272.35 224.7L1301.45 182.4Q1305.05 177.3 1307.75 175.95Q1310.45 174.6 1317.65 174.6H1332.35Q1341.35 174.6 1341.35 179.1Q1341.35 181.20000000000002 1338.65 185.4L1293.65 249.9L1341.95 319.2Q1344.65 323.1 1344.65 325.5Q1344.65 330.0 1335.05 330.0H1320.65Q1313.15 330.0 1310.15 328.65Q1307.15 327.3 1303.85 322.2L1271.75 275.1L1240.55 322.2Q1237.25 327.3 1234.25 328.65Q1231.25 330.0 1223.75 330.0H1209.65Q1199.75 330.0 1199.75 325.8Z"
     id="text11"
     style="fill:#ffffff"
     aria-label="signex" />
</svg>
